<svg width="260" height="260" viewBox="0 0 260 260" fill="none" xmlns="http://www.w3.org/2000/svg">
<rect width="260" height="260" rx="60" fill="url(#paint0_linear_112_804)"/>
<rect x="16.25" y="16.25" width="227.5" height="227.5" rx="50" stroke="white" stroke-width="3"/>
<mask id="path-3-inside-1_112_804" fill="white">
<path fill-rule="evenodd" clip-rule="evenodd" d="M130 235C187.99 235 235 187.99 235 130C235 72.0101 187.99 25 130 25C72.0101 25 25 72.0101 25 130C25 187.99 72.0101 235 130 235ZM130 210C174.183 210 210 174.183 210 130C210 85.8172 174.183 50 130 50C85.8173 50 50 85.8172 50 130C50 174.183 85.8173 210 130 210Z"/>
</mask>
<path fill-rule="evenodd" clip-rule="evenodd" d="M130 235C187.99 235 235 187.99 235 130C235 72.0101 187.99 25 130 25C72.0101 25 25 72.0101 25 130C25 187.99 72.0101 235 130 235ZM130 210C174.183 210 210 174.183 210 130C210 85.8172 174.183 50 130 50C85.8173 50 50 85.8172 50 130C50 174.183 85.8173 210 130 210Z" fill="url(#paint1_angular_112_804)" fill-opacity="0.2"/>
<path d="M233.5 130C233.5 187.161 187.161 233.5 130 233.5V236.5C188.818 236.5 236.5 188.818 236.5 130H233.5ZM130 26.5C187.161 26.5 233.5 72.8385 233.5 130H236.5C236.5 71.1817 188.818 23.5 130 23.5V26.5ZM26.5 130C26.5 72.8385 72.8385 26.5 130 26.5V23.5C71.1817 23.5 23.5 71.1817 23.5 130H26.5ZM130 233.5C72.8385 233.5 26.5 187.161 26.5 130H23.5C23.5 188.818 71.1817 236.5 130 236.5V233.5ZM208.5 130C208.5 173.354 173.354 208.5 130 208.5V211.5C175.011 211.5 211.5 175.011 211.5 130H208.5ZM130 51.5C173.354 51.5 208.5 86.6456 208.5 130H211.5C211.5 84.9888 175.011 48.5 130 48.5V51.5ZM51.5 130C51.5 86.6456 86.6457 51.5 130 51.5V48.5C84.9888 48.5 48.5 84.9888 48.5 130H51.5ZM130 208.5C86.6457 208.5 51.5 173.354 51.5 130H48.5C48.5 175.011 84.9888 211.5 130 211.5V208.5Z" fill="url(#paint2_angular_112_804)" mask="url(#path-3-inside-1_112_804)"/>
<path d="M83.7193 74.8447C75.5542 81.6961 69.0121 90.2748 64.5653 99.9616C60.1185 109.649 57.8778 120.202 58.0051 130.86" stroke="white" stroke-opacity="0.16" stroke-width="4"/>
<g filter="url(#filter0_f_112_804)">
<path d="M80.6813 155L64 160C71.3667 180.09 97.5693 190 130 190C162.431 190 181.633 180.09 189 160L179.319 155C172.437 168.728 152.957 178.625 130 178.625C107.043 178.625 87.5628 168.728 80.6813 155Z" fill="url(#paint3_angular_112_804)"/>
</g>
<path fill-rule="evenodd" clip-rule="evenodd" d="M128.009 42.406L128.513 37.1022C128.982 37.1172 129.471 37.2448 129.969 37.5202L129.474 42.7248C128.985 42.5373 128.493 42.4332 128.009 42.406ZM126.9 43.5022L126.419 48.5514C124.483 48.6953 122.601 49.5307 121.771 50.9843L122.64 51.48C123.221 50.4622 124.643 49.7267 126.323 49.5631L125.742 55.672C124.229 55.9085 122.791 56.6581 121.853 57.3415L122.147 57.7457C123.021 57.1092 124.33 56.4281 125.693 56.1871L124.644 67.2082C122.932 67.4224 121.33 68.3063 120.549 69.9496L121.452 70.379C122.019 69.1848 123.18 68.4582 124.546 68.2323L124.184 72.0399C123.108 72.3593 121.983 73.0071 120.7 73.9714L121.3 74.7709C122.373 73.9652 123.273 73.4337 124.08 73.1295L123.727 76.8404C122.823 77.0663 121.846 77.4862 120.743 78.1494L121.258 79.0065C122.148 78.4716 122.925 78.1197 123.626 77.9059C123.489 79.381 123.428 80.8602 123.444 82.3376C122.329 82.4516 121.167 82.7623 119.795 83.3808L120.206 84.2924C121.451 83.7309 122.488 83.4499 123.466 83.3409C123.526 85.0993 123.694 86.8534 123.97 88.5931C123.202 88.5185 122.285 88.3563 121.114 88.0826L120.886 89.0563C122.211 89.366 123.253 89.5446 124.144 89.6118C124.237 90.1194 124.339 90.6256 124.45 91.1301L124.98 93.5315C124.022 93.3514 122.985 92.8732 121.8 91.983L121.2 92.7825C122.633 93.8591 123.941 94.4303 125.211 94.5777L125.948 97.9149C124.41 97.7735 123.074 97.0263 122.452 95.7169L121.549 96.1462C122.399 97.9338 124.22 98.8228 126.097 98.9286C126.122 98.93 126.147 98.9313 126.172 98.9324L127.452 104.731C125.838 104.814 124.525 104.285 123.952 103.079L123.049 103.508C123.893 105.285 125.785 105.854 127.67 105.719L128.496 109.462C126.862 109.556 125.53 109.029 124.952 107.812L124.049 108.241C124.9 110.032 126.814 110.596 128.714 110.449L132.497 127.591L133.474 127.376L129.707 110.31C130.173 110.216 130.64 110.084 131.096 109.917L134.649 126.013L135.626 125.798L132.032 109.517C132.492 109.291 132.931 109.029 133.336 108.736L135.12 116.818L136.096 116.603L134.2 108.01C134.255 107.956 134.309 107.901 134.362 107.845L134.11 107.605L133.331 104.074L135.512 83.8587C136.409 89.7768 137.211 95.5348 137.752 99.6452L138.248 99.5799C137.65 95.0364 136.734 88.4809 135.721 81.9194L138.298 58.0326L137.702 57.9682L135.364 79.6327C135.222 78.7315 135.079 77.8345 134.934 76.9472C134.278 72.912 133.605 69.073 132.972 65.9261C132.454 63.3576 131.96 61.2362 131.519 59.8452L133.997 35.5512L133.003 35.4497L132.668 38.726C132.14 37.9919 131.588 37.426 131.022 37.0103L131.816 28.6685L130.82 28.5738L130.07 36.4554C129.579 36.2394 129.088 36.1282 128.608 36.1052L129.516 26.5654L128.52 26.4707L127.596 36.186C127.545 36.1967 127.493 36.2083 127.443 36.2208C125.552 36.6874 124.067 38.4192 123.526 40.0311L124.474 40.3492C124.914 39.039 126.093 37.678 127.495 37.2437L126.999 42.4609C125.529 42.7066 124.281 43.6594 123.563 44.9472L124.437 45.4342C124.976 44.4672 125.866 43.7574 126.9 43.5022ZM135.158 81.5478C134.923 80.0306 134.683 78.5155 134.441 77.0275C133.785 72.9951 133.113 69.163 132.481 66.0248C132.095 64.1052 131.725 62.4529 131.383 61.1752L129.69 77.7712C129.237 82.213 129.496 86.6987 130.458 91.0586L132.926 102.238L135.158 81.5478ZM125.653 67.1584L126.706 56.0963C127.21 56.0985 127.705 56.1768 128.177 56.354L127.13 67.3498C126.643 67.2341 126.146 67.1703 125.653 67.1584ZM126.753 55.5967C127.25 55.603 127.746 55.6772 128.226 55.8404L128.804 49.7565C128.326 49.6289 127.829 49.556 127.33 49.5351L126.753 55.5967ZM128.106 67.6571L129.131 56.884C129.691 57.313 130.202 57.9471 130.615 58.8536L129.63 68.5092C129.162 68.156 128.646 67.872 128.106 67.6571ZM129.193 56.3145C129.76 56.6898 130.274 57.2247 130.707 57.9506L131.388 51.2787C130.936 50.7768 130.384 50.3883 129.776 50.1062L129.185 56.3098L129.193 56.3145ZM124.465 83.285C124.525 85.0792 124.701 86.8687 124.99 88.6425C125.261 88.6406 125.514 88.6253 125.757 88.5983C125.995 88.572 126.224 88.5347 126.453 88.487C126.189 86.793 126.027 85.0855 125.967 83.3739C125.464 83.3184 124.982 83.2849 124.5 83.2849L124.465 83.285ZM126.973 83.5054C127.034 85.0865 127.185 86.6636 127.425 88.2292C127.843 88.0989 128.291 87.9405 128.807 87.758L128.856 87.7406C128.677 86.4133 128.561 85.0788 128.508 83.7415C128.329 83.714 128.155 83.6869 127.986 83.6603L127.986 83.6603L127.984 83.6601C127.631 83.605 127.296 83.5526 126.973 83.5054ZM128.479 82.725L128.17 82.6767C127.747 82.6105 127.341 82.547 126.946 82.491C126.924 80.964 126.985 79.4349 127.13 77.9105L127.131 77.8984C127.611 78.0361 128.101 78.2207 128.624 78.4369C128.504 79.8646 128.456 81.2958 128.479 82.725ZM125.944 82.366C125.455 82.3156 124.977 82.2849 124.5 82.2849L124.443 82.285C124.429 80.8267 124.491 79.3666 124.63 77.9108L124.652 77.6798C124.901 77.647 125.141 77.6319 125.375 77.6319C125.636 77.6319 125.892 77.6506 126.147 77.6857L126.134 77.8158C125.99 79.3302 125.927 80.8491 125.944 82.366ZM125.427 90.9146C125.333 90.4908 125.246 90.0657 125.166 89.6397C125.408 89.6334 125.64 89.6174 125.867 89.5923C126.124 89.5639 126.373 89.5237 126.618 89.4735C126.718 90.0273 126.829 90.5795 126.95 91.1298L127.445 93.3712C127.013 93.5033 126.587 93.5842 126.159 93.6087C126.114 93.6113 126.068 93.6133 126.022 93.6146L125.427 90.9146ZM127.927 90.9142C127.803 90.353 127.69 89.7896 127.59 89.2245C128.038 89.0895 128.5 88.928 129.004 88.7494C129.138 89.5948 129.297 90.4367 129.482 91.2741L129.707 92.2945C129.253 92.5731 128.816 92.8126 128.389 93.0082L127.927 90.9142ZM128.723 77.3975C128.224 77.1979 127.73 77.021 127.227 76.8876L127.576 73.2203C128.042 73.4173 128.533 73.6858 129.067 74.0278L128.723 77.3975ZM126.242 76.6896C125.959 76.6523 125.67 76.6319 125.375 76.6319C125.169 76.6319 124.96 76.6418 124.749 76.6623L125.111 72.854C125.232 72.8359 125.351 72.8233 125.469 72.8159C125.844 72.7924 126.218 72.8215 126.602 72.9047L126.242 76.6896ZM126.973 97.9199L126.241 94.6056C126.723 94.576 127.194 94.4876 127.661 94.3503L128.386 97.6362C127.928 97.7862 127.451 97.8813 126.973 97.9199ZM129.322 97.2377L128.609 94.0048C129.051 93.8138 129.492 93.5841 129.934 93.3244L130.59 96.2945C130.22 96.6728 129.789 96.988 129.322 97.2377ZM129.179 72.9221C128.665 72.6169 128.168 72.3678 127.675 72.1832L128.006 68.7017C128.56 68.9549 129.071 69.2947 129.506 69.718L129.179 72.9221ZM126.697 71.9034C126.271 71.8207 125.844 71.7905 125.406 71.8179C125.34 71.822 125.274 71.8274 125.208 71.8342L125.558 68.1567C126.053 68.1627 126.551 68.2298 127.035 68.3563L126.697 71.9034ZM130.879 108.93C130.426 109.105 129.958 109.241 129.492 109.333L128.665 105.586C129.131 105.494 129.598 105.364 130.055 105.199L130.879 108.93ZM133.098 107.657C132.711 107.976 132.275 108.262 131.81 108.508L130.992 104.804C131.452 104.58 131.892 104.321 132.297 104.031L133.098 107.657ZM132.06 102.955L130.839 97.4217C130.441 97.7496 130.005 98.0245 129.545 98.2462L130.77 103.796C131.235 103.553 131.672 103.27 132.06 102.955ZM129.838 104.213L128.602 98.6168C128.14 98.7606 127.665 98.8564 127.19 98.9041L128.449 104.609C128.916 104.519 129.384 104.385 129.838 104.213ZM128.9 48.7496C128.414 48.6316 127.917 48.5627 127.425 48.5387L127.914 43.4026C128.379 43.4241 128.872 43.5378 129.374 43.768L128.9 48.7496ZM131.516 50.0216C131.019 49.6132 130.463 49.2955 129.875 49.0602L130.324 44.3419C130.864 44.7506 131.403 45.3075 131.922 46.0417L131.516 50.0216ZM132.068 44.6135L132.505 40.3292C131.978 39.3983 131.438 38.7098 130.907 38.214L130.433 43.2041C130.993 43.5523 131.543 44.0188 132.068 44.6135Z" fill="url(#paint4_linear_112_804)" fill-opacity="0.7"/>
<path d="M124.592 29.5363C125.035 25.0202 131.465 24.6145 132.473 29.0391L138.839 57.0033C140.27 63.2901 140.679 69.7664 140.049 76.1832L135.408 123.464C134.965 127.98 128.535 128.385 127.527 123.961L121.161 95.9967C119.73 89.7099 119.321 83.2336 119.951 76.8168L124.592 29.5363Z" stroke="#F5FAFE" stroke-width="3"/>
<g filter="url(#filter1_dii_112_804)">
<path d="M219.417 176.955C222.645 179.266 220.139 184.317 216.346 183.144L188.945 174.675C182.836 172.787 177.072 169.927 171.873 166.205L133.248 138.545C130.019 136.234 132.525 131.183 136.319 132.356L163.72 140.824C169.828 142.712 175.593 145.573 180.791 149.295L219.417 176.955Z" fill="#4685E1" stroke="#95B7E9"/>
<path fill-rule="evenodd" clip-rule="evenodd" d="M206.855 173.073L211.195 176.161C210.948 176.56 210.593 176.919 210.106 177.213L205.846 174.182C206.253 173.852 206.589 173.479 206.855 173.073ZM206.46 171.564L202.287 168.595C202.887 167.079 202.912 165.38 202.147 164.07L201.283 164.574C201.823 165.497 201.869 166.765 201.444 167.995L196.499 164.476C197.051 163.048 197.121 161.428 196.998 160.274L196.501 160.327C196.615 161.402 196.55 162.876 196.078 164.177L187.058 157.758C187.728 156.168 187.764 154.338 186.731 152.84L185.908 153.408C186.658 154.496 186.707 155.865 186.219 157.161L183.103 154.944C183.365 153.852 183.366 152.554 183.173 150.96L182.18 151.081C182.341 152.412 182.352 153.457 182.211 154.309L179.174 152.148C179.431 151.251 179.556 150.196 179.533 148.908L178.533 148.926C178.551 149.964 178.468 150.813 178.302 151.527L178.273 151.507C177.075 150.654 175.836 149.865 174.56 149.142C175.016 148.122 175.327 146.963 175.476 145.472L174.481 145.372C174.346 146.724 174.073 147.758 173.681 148.657C172.133 147.826 170.534 147.091 168.894 146.455C169.34 145.834 169.934 145.128 170.745 144.263L170.015 143.579C169.097 144.559 168.427 145.363 167.926 146.093C167.477 145.932 167.026 145.778 166.572 145.631L164.131 144.844C164.765 144.122 165.687 143.477 167.024 142.908L166.632 141.988C165.01 142.679 163.872 143.51 163.109 144.514L159.861 143.466C160.751 142.245 162.045 141.491 163.465 141.605L163.544 140.608C161.576 140.451 159.898 141.578 158.868 143.145L153.214 141.321C153.949 139.946 155.041 139.119 156.339 139.223L156.419 138.226C154.501 138.073 153.083 139.363 152.249 141.009L148.608 139.834C149.343 138.451 150.438 137.618 151.74 137.722L151.82 136.726C149.897 136.572 148.476 137.87 147.643 139.523L132.154 134.524L131.846 135.476L147.249 140.447C147.105 140.851 146.987 141.274 146.899 141.705L132.656 137.025L132.344 137.975L146.747 142.708C146.688 143.317 146.686 143.929 146.748 144.521L138.856 142.025L138.555 142.978L146.944 145.632C146.964 145.707 146.984 145.782 147.006 145.856L147.34 145.757L150.785 146.847L166.44 158.327C161.842 156.474 157.455 154.66 154.096 153.269L153.904 153.731C157.702 155.304 162.816 157.417 168.065 159.52L188.823 174.742L189.177 174.258L170.288 160.406C171.64 160.942 172.99 161.473 174.318 161.988C177.931 163.39 181.381 164.68 184.266 165.669C186.615 166.475 188.602 167.086 189.997 167.393L209.797 181.686L210.382 180.876L207.712 178.948C208.612 178.858 209.377 178.663 210.021 178.38L216.848 183.238L217.428 182.424L210.977 177.833C211.41 177.516 211.752 177.146 212.011 176.742L219.819 182.298L220.399 181.483L212.448 175.825C212.464 175.775 212.479 175.725 212.494 175.675C213.036 173.804 212.278 171.652 211.153 170.378L210.403 171.04C211.318 172.076 211.907 173.777 211.582 175.209L207.312 172.171C207.834 170.775 207.633 169.218 206.877 167.952L206.018 168.465C206.586 169.415 206.755 170.541 206.46 171.564ZM168.682 159.228C170.627 160.006 172.586 160.78 174.499 161.522C178.109 162.923 181.553 164.21 184.428 165.196C186.163 165.791 187.685 166.274 188.908 166.607L175.387 156.846C171.767 154.233 167.752 152.214 163.495 150.868L152.569 147.412L168.682 159.228ZM186.596 158.657L195.65 165.099C195.396 165.535 195.08 165.925 194.691 166.244L185.692 159.84C186.036 159.476 186.34 159.077 186.596 158.657ZM196.059 165.39C195.805 165.817 195.493 166.21 195.112 166.543L200.131 170.115C200.483 169.757 200.783 169.353 201.025 168.924L196.059 165.39ZM184.938 160.531L193.755 166.805C193.103 167.077 192.299 167.202 191.308 167.106L183.438 161.425C183.978 161.196 184.482 160.892 184.938 160.531ZM194.218 167.144C193.609 167.448 192.889 167.625 192.044 167.637L197.483 171.564C198.177 171.423 198.799 171.148 199.339 170.779L194.225 167.14L194.218 167.144ZM173.232 149.55C171.651 148.701 170.016 147.953 168.338 147.313C168.197 147.558 168.079 147.794 167.977 148.027C167.889 148.227 167.812 148.426 167.744 148.629C169.343 149.258 170.903 149.981 172.414 150.796C172.707 150.397 172.97 150.004 173.207 149.595L173.232 149.55ZM171.799 151.601C170.398 150.852 168.954 150.183 167.476 149.598C167.374 150.041 167.284 150.525 167.18 151.088L167.17 151.139C168.409 151.648 169.623 152.215 170.807 152.837C170.92 152.696 171.031 152.559 171.139 152.426L171.139 152.425L171.139 152.425C171.371 152.138 171.591 151.865 171.799 151.601ZM171.702 153.32L171.899 153.077C172.173 152.737 172.436 152.41 172.687 152.089C173.946 152.801 175.168 153.579 176.349 154.419L176.556 154.567C176.197 154.913 175.792 155.245 175.343 155.59C174.167 154.772 172.952 154.015 171.702 153.32ZM173.295 151.284C173.578 150.893 173.838 150.501 174.073 150.095L174.107 150.034C175.339 150.735 176.536 151.498 177.693 152.321L177.985 152.529C177.889 152.761 177.782 152.976 177.665 153.179C177.534 153.405 177.39 153.618 177.232 153.82L176.929 153.605C175.756 152.77 174.543 151.996 173.295 151.284ZM166.265 146.583C166.641 146.705 167.015 146.831 167.387 146.963C167.265 147.186 167.157 147.406 167.061 147.625C166.966 147.841 166.883 148.057 166.809 148.274C166.357 148.109 165.903 147.951 165.446 147.8L163.023 147.004C163.122 146.601 163.258 146.224 163.437 145.869C163.465 145.812 163.495 145.756 163.526 145.699L166.265 146.583ZM165.133 148.75C165.603 148.905 166.07 149.067 166.533 149.238C166.419 149.713 166.324 150.213 166.223 150.762C165.424 150.456 164.615 150.173 163.797 149.914L162.801 149.599C162.785 149.029 162.799 148.497 162.852 148.001L165.133 148.75ZM176.194 156.195C176.616 155.863 177.016 155.524 177.383 155.155L180.385 157.291C179.981 157.596 179.503 157.887 178.94 158.178L176.194 156.195ZM178.048 154.401C178.221 154.174 178.383 153.935 178.531 153.679C178.634 153.5 178.73 153.315 178.818 153.121L181.934 155.339C181.89 155.453 181.841 155.562 181.789 155.668C181.621 156.005 181.409 156.314 181.145 156.605L178.048 154.401ZM159.332 144.346L162.56 145.387L162.543 145.42C162.339 145.825 162.185 146.249 162.07 146.691L158.868 145.639C158.974 145.191 159.13 144.756 159.332 144.346ZM158.719 146.643L161.882 147.682C161.816 148.195 161.791 148.728 161.795 149.281L158.895 148.364C158.739 147.805 158.685 147.222 158.719 146.643ZM179.842 158.828C180.363 158.536 180.827 158.23 181.234 157.895L184.083 159.923C183.587 160.276 183.037 160.549 182.453 160.714L179.842 158.828ZM181.965 157.188C182.249 156.861 182.489 156.506 182.684 156.113C182.714 156.054 182.742 155.994 182.769 155.933L185.779 158.075C185.527 158.5 185.219 158.899 184.868 159.254L181.965 157.188ZM147.856 142.02C147.939 141.586 148.055 141.16 148.201 140.754L151.853 141.932C151.705 142.345 151.585 142.776 151.495 143.216L147.856 142.02ZM147.801 144.854C147.703 144.272 147.679 143.652 147.724 143.029L151.345 144.219C151.288 144.808 151.286 145.4 151.341 145.974L147.801 144.854ZM152.392 146.307L157.795 148.016C157.7 147.454 157.686 146.883 157.742 146.321L152.322 144.54C152.279 145.142 152.301 145.741 152.392 146.307ZM152.453 143.531L157.915 145.326C158.026 144.88 158.18 144.447 158.371 144.036L152.805 142.24C152.655 142.653 152.537 143.088 152.453 143.531ZM200.954 170.701C201.298 170.333 201.596 169.93 201.843 169.506L206.039 172.492C205.787 172.884 205.443 173.254 204.992 173.574L200.954 170.701ZM198.519 172.312C199.141 172.089 199.703 171.773 200.198 171.39L204.02 174.11C203.396 174.373 202.645 174.561 201.749 174.644L198.519 172.312ZM202.913 175.484L206.405 178.005C207.475 178.014 208.341 177.891 209.035 177.679L204.951 174.773C204.37 175.084 203.691 175.327 202.913 175.484Z" fill="url(#paint5_linear_112_804)" fill-opacity="0.7"/>
</g>
<g filter="url(#filter2_f_112_804)">
<ellipse cx="161.393" cy="145.074" rx="20.2669" ry="2.35848" transform="rotate(22.7907 161.393 145.074)" fill="white" fill-opacity="0.6"/>
</g>
<g filter="url(#filter3_f_112_804)">
<ellipse cx="198.536" cy="166.819" rx="23.129" ry="2.35848" transform="rotate(33.7769 198.536 166.819)" fill="white" fill-opacity="0.6"/>
</g>
<g filter="url(#filter4_d_112_804)">
<g filter="url(#filter5_ii_112_804)">
<path d="M38.2917 173.548C34.6023 176.19 37.4662 181.962 41.8017 180.622L69.2026 172.153C75.3627 170.249 81.1756 167.365 86.4178 163.611L125.044 135.952C128.733 133.31 125.869 127.538 121.534 128.878L94.1327 137.347C87.9726 139.251 82.1596 142.135 76.9175 145.889L38.2917 173.548Z" fill="#5697E8"/>
</g>
</g>
<defs>
<filter id="filter0_f_112_804" x="46" y="137" width="161" height="71" filterUnits="userSpaceOnUse" color-interpolation-filters="sRGB">
<feFlood flood-opacity="0" result="BackgroundImageFix"/>
<feBlend mode="normal" in="SourceGraphic" in2="BackgroundImageFix" result="shape"/>
<feGaussianBlur stdDeviation="9" result="effect1_foregroundBlur_112_804"/>
</filter>
<filter id="filter1_dii_112_804" x="129.261" y="130.679" width="99.1422" height="60.1416" filterUnits="userSpaceOnUse" color-interpolation-filters="sRGB">
<feFlood flood-opacity="0" result="BackgroundImageFix"/>
<feColorMatrix in="SourceAlpha" type="matrix" values="0 0 0 0 0 0 0 0 0 0 0 0 0 0 0 0 0 0 127 0" result="hardAlpha"/>
<feOffset dy="1"/>
<feGaussianBlur stdDeviation="1"/>
<feColorMatrix type="matrix" values="0 0 0 0 0 0 0 0 0 0 0 0 0 0 0 0 0 0 0.1 0"/>
<feBlend mode="normal" in2="BackgroundImageFix" result="effect1_dropShadow_112_804"/>
<feBlend mode="normal" in="SourceGraphic" in2="effect1_dropShadow_112_804" result="shape"/>
<feColorMatrix in="SourceAlpha" type="matrix" values="0 0 0 0 0 0 0 0 0 0 0 0 0 0 0 0 0 0 127 0" result="hardAlpha"/>
<feOffset dx="4" dy="10"/>
<feGaussianBlur stdDeviation="3.5"/>
<feComposite in2="hardAlpha" operator="arithmetic" k2="-1" k3="1"/>
<feColorMatrix type="matrix" values="0 0 0 0 1 0 0 0 0 1 0 0 0 0 1 0 0 0 0.75 0"/>
<feBlend mode="normal" in2="shape" result="effect2_innerShadow_112_804"/>
<feColorMatrix in="SourceAlpha" type="matrix" values="0 0 0 0 0 0 0 0 0 0 0 0 0 0 0 0 0 0 127 0" result="hardAlpha"/>
<feOffset dx="7" dy="3"/>
<feGaussianBlur stdDeviation="9.5"/>
<feComposite in2="hardAlpha" operator="arithmetic" k2="-1" k3="1"/>
<feColorMatrix type="matrix" values="0 0 0 0 0.290196 0 0 0 0 0.576471 0 0 0 0 0.909804 0 0 0 0.54 0"/>
<feBlend mode="normal" in2="effect2_innerShadow_112_804" result="effect3_innerShadow_112_804"/>
</filter>
<filter id="filter2_f_112_804" x="137.685" y="131.926" width="47.4147" height="26.2969" filterUnits="userSpaceOnUse" color-interpolation-filters="sRGB">
<feFlood flood-opacity="0" result="BackgroundImageFix"/>
<feBlend mode="normal" in="SourceGraphic" in2="BackgroundImageFix" result="shape"/>
<feGaussianBlur stdDeviation="2.5" result="effect1_foregroundBlur_112_804"/>
</filter>
<filter id="filter3_f_112_804" x="174.266" y="148.81" width="48.541" height="36.0186" filterUnits="userSpaceOnUse" color-interpolation-filters="sRGB">
<feFlood flood-opacity="0" result="BackgroundImageFix"/>
<feBlend mode="normal" in="SourceGraphic" in2="BackgroundImageFix" result="shape"/>
<feGaussianBlur stdDeviation="2.5" result="effect1_foregroundBlur_112_804"/>
</filter>
<filter id="filter4_d_112_804" x="34.5966" y="127.679" width="94.1422" height="56.1416" filterUnits="userSpaceOnUse" color-interpolation-filters="sRGB">
<feFlood flood-opacity="0" result="BackgroundImageFix"/>
<feColorMatrix in="SourceAlpha" type="matrix" values="0 0 0 0 0 0 0 0 0 0 0 0 0 0 0 0 0 0 127 0" result="hardAlpha"/>
<feOffset dy="1"/>
<feGaussianBlur stdDeviation="1"/>
<feColorMatrix type="matrix" values="0 0 0 0 0 0 0 0 0 0 0 0 0 0 0 0 0 0 0.1 0"/>
<feBlend mode="normal" in2="BackgroundImageFix" result="effect1_dropShadow_112_804"/>
<feBlend mode="normal" in="SourceGraphic" in2="effect1_dropShadow_112_804" result="shape"/>
</filter>
<filter id="filter5_ii_112_804" x="34.5966" y="125.679" width="92.1422" height="55.1416" filterUnits="userSpaceOnUse" color-interpolation-filters="sRGB">
<feFlood flood-opacity="0" result="BackgroundImageFix"/>
<feBlend mode="normal" in="SourceGraphic" in2="BackgroundImageFix" result="shape"/>
<feColorMatrix in="SourceAlpha" type="matrix" values="0 0 0 0 0 0 0 0 0 0 0 0 0 0 0 0 0 0 127 0" result="hardAlpha"/>
<feOffset dx="-2" dy="-14"/>
<feGaussianBlur stdDeviation="1.5"/>
<feComposite in2="hardAlpha" operator="arithmetic" k2="-1" k3="1"/>
<feColorMatrix type="matrix" values="0 0 0 0 0.291424 0 0 0 0 0.574526 0 0 0 0 0.908333 0 0 0 1 0"/>
<feBlend mode="normal" in2="shape" result="effect1_innerShadow_112_804"/>
<feColorMatrix in="SourceAlpha" type="matrix" values="0 0 0 0 0 0 0 0 0 0 0 0 0 0 0 0 0 0 127 0" result="hardAlpha"/>
<feOffset dy="-9"/>
<feGaussianBlur stdDeviation="1.5"/>
<feComposite in2="hardAlpha" operator="arithmetic" k2="-1" k3="1"/>
<feColorMatrix type="matrix" values="0 0 0 0 1 0 0 0 0 1 0 0 0 0 1 0 0 0 1 0"/>
<feBlend mode="normal" in2="effect1_innerShadow_112_804" result="effect2_innerShadow_112_804"/>
</filter>
<linearGradient id="paint0_linear_112_804" x1="130" y1="0" x2="130" y2="260" gradientUnits="userSpaceOnUse">
<stop stop-color="#58C2FE"/>
<stop offset="0.926871" stop-color="#235CE7"/>
</linearGradient>
<radialGradient id="paint1_angular_112_804" cx="0" cy="0" r="1" gradientUnits="userSpaceOnUse" gradientTransform="translate(130 130) rotate(154.072) scale(100.629)">
<stop offset="0.0454812" stop-color="white" stop-opacity="0.0577707"/>
<stop offset="0.31428" stop-color="white"/>
<stop offset="0.327395" stop-color="white" stop-opacity="0"/>
<stop offset="0.374748" stop-color="white" stop-opacity="0"/>
<stop offset="0.647442" stop-color="white"/>
<stop offset="0.655851" stop-color="white" stop-opacity="0"/>
<stop offset="0.725656" stop-color="white" stop-opacity="0"/>
<stop offset="0.989559" stop-color="white"/>
<stop offset="0.997473" stop-color="white" stop-opacity="0"/>
</radialGradient>
<radialGradient id="paint2_angular_112_804" cx="0" cy="0" r="1" gradientUnits="userSpaceOnUse" gradientTransform="translate(130 130) rotate(90) scale(107)">
<stop offset="0.167111" stop-color="white" stop-opacity="0.3"/>
<stop offset="0.172749" stop-color="white" stop-opacity="0.06"/>
<stop offset="0.213938" stop-color="white" stop-opacity="0"/>
<stop offset="0.484036" stop-color="white" stop-opacity="0.4"/>
<stop offset="0.494925" stop-color="white" stop-opacity="0.06"/>
<stop offset="0.619166" stop-color="white" stop-opacity="0"/>
<stop offset="0.831501" stop-color="white" stop-opacity="0.3"/>
<stop offset="0.836608" stop-color="white" stop-opacity="0.03"/>
<stop offset="0.94576" stop-color="white" stop-opacity="0"/>
</radialGradient>
<radialGradient id="paint3_angular_112_804" cx="0" cy="0" r="1" gradientUnits="userSpaceOnUse" gradientTransform="translate(130 172.5) rotate(90) scale(17.5 67)">
<stop offset="0.0470825" stop-color="#002D74" stop-opacity="0.1"/>
<stop offset="0.239122" stop-color="#002B6F" stop-opacity="0.26"/>
<stop offset="0.905943" stop-color="#003383" stop-opacity="0.26"/>
<stop offset="0.992653" stop-color="#002F79" stop-opacity="0.1"/>
</radialGradient>
<linearGradient id="paint4_linear_112_804" x1="130.359" y1="26.4707" x2="130.359" y2="127.591" gradientUnits="userSpaceOnUse">
<stop stop-color="white" stop-opacity="0.76"/>
<stop offset="0.848552" stop-color="white" stop-opacity="0"/>
</linearGradient>
<linearGradient id="paint5_linear_112_804" x1="219.431" y1="183.161" x2="132.912" y2="133.21" gradientUnits="userSpaceOnUse">
<stop stop-color="#95B7E9"/>
<stop offset="0.848552" stop-color="white" stop-opacity="0.5"/>
</linearGradient>
</defs>
</svg>
